<?xml version="1.0" encoding="UTF-8"?>
<svg width="362px" height="166px" viewBox="0 0 362 166" version="1.1" xmlns="http://www.w3.org/2000/svg" xmlns:xlink="http://www.w3.org/1999/xlink">
    <title>pill-reporting</title>
    <g id="pill-reporting" stroke="none" stroke-width="1" fill="none" fill-rule="evenodd">
        <g id="Group-19">
            <path d="M10,0 L352,0 C357.522847,-1.01453063e-15 362,4.4771525 362,10 L362,156 C362,161.522847 357.522847,166 352,166 L10,166 C4.4771525,166 6.76353751e-16,161.522847 0,156 L0,10 C-6.76353751e-16,4.4771525 4.4771525,1.01453063e-15 10,0 Z" id="Rectangle" fill="#FFFFFF"></path>
            <text id="Reporting" font-family="Roboto-Medium, Roboto" font-size="18" font-weight="400" line-spacing="43" fill="#363333">
                <tspan x="29" y="31">Reporting</tspan>
            </text>
            <text id="Your-Plan-Review-rep" font-family="Roboto-Regular, Roboto" font-size="14" font-weight="normal" letter-spacing="-0.0140000007" fill="#363333">
                <tspan x="50" y="73">Your Plan Review report is ready for review</tspan>
            </text>
            <text id="The-report-you-set-a" font-family="Roboto-Regular, Roboto" font-size="14" font-weight="normal" letter-spacing="-0.0140000007" fill="#363333">
                <tspan x="50" y="101">The report you set an alert for is ready</tspan>
            </text>
            <text id="Your-408(b)(2)-discl" font-family="Roboto-Regular, Roboto" font-size="14" font-weight="normal" letter-spacing="-0.0140000007" fill="#363333">
                <tspan x="50" y="130">Your 408(b)(2) disclosure report is ready</tspan>
            </text>
            <g id="recurring" transform="translate(30.000000, 61.000000)" stroke="#0195B3" stroke-linecap="round" stroke-linejoin="round">
                <path d="M4.07190766,0 L5.46585796,1.01365958 L4.46395618,2.42396855 M0.15142243,7.75669937 C-0.414869881,5.37680297 0.630592846,2.82061795 2.89576209,1.63066975 C3.72342008,1.1899482 4.59463902,0.969587421 5.46585796,1.01365958 M0.935519475,11.1502553 L1.02264137,9.38736912 L2.76507925,9.47551343 M9.51702602,10.2688122 C7.86171004,12.0757706 5.16093133,12.5605643 2.93932303,11.2824718 C2.11166504,10.7976781 1.45825084,10.1806679 1.02264137,9.43144128 M12,8.28556523 L10.4318059,9.07886403 L9.64770886,7.49226644 M6.94693015,1.14587604 C9.34278224,1.71881406 11.1287811,3.87834968 11.1287811,6.4345347 C11.1287811,7.36004997 10.9109763,8.28556523 10.4753669,9.03479188" id="Shape"></path>
            </g>
            <g id="recurring" transform="translate(30.000000, 119.000000)" stroke="#0195B3" stroke-linecap="round" stroke-linejoin="round">
                <path d="M4.07190766,0 L5.46585796,1.01365958 L4.46395618,2.42396855 M0.15142243,7.75669937 C-0.414869881,5.37680297 0.630592846,2.82061795 2.89576209,1.63066975 C3.72342008,1.1899482 4.59463902,0.969587421 5.46585796,1.01365958 M0.935519475,11.1502553 L1.02264137,9.38736912 L2.76507925,9.47551343 M9.51702602,10.2688122 C7.86171004,12.0757706 5.16093133,12.5605643 2.93932303,11.2824718 C2.11166504,10.7976781 1.45825084,10.1806679 1.02264137,9.43144128 M12,8.28556523 L10.4318059,9.07886403 L9.64770886,7.49226644 M6.94693015,1.14587604 C9.34278224,1.71881406 11.1287811,3.87834968 11.1287811,6.4345347 C11.1287811,7.36004997 10.9109763,8.28556523 10.4753669,9.03479188" id="Shape"></path>
            </g>
            <g id="alert" transform="translate(31.000000, 89.000000)" stroke="#F87F4C" stroke-linejoin="round">
                <path d="M4.43076923,1.2 C4.43076923,0.784615385 4.8,0.415384615 5.21538462,0.415384615 C5.63076923,0.415384615 6,0.738461538 6,1.2 C6,1.61538462 5.63076923,1.98461538 5.21538462,1.98461538 C4.8,1.98461538 4.43076923,1.61538462 4.43076923,1.2 Z M6.36923077,10.8461538 C6.36923077,11.4923077 5.86153846,12 5.21538462,12 C4.56923077,12 4.06153846,11.4923077 4.06153846,10.8461538 M10.0153846,10.5692308 C10.0615385,10.5692308 10.0615385,10.5230769 10.0153846,10.4769231 C9,10.1076923 9,8.67692308 9,8.67692308 L9,5.76923077 C9,3.69230769 7.33846154,2.03076923 5.26153846,2.03076923 L5.21538462,2.03076923 C3.13846154,2.03076923 1.47692308,3.69230769 1.47692308,5.76923077 L1.47692308,8.67692308 C1.47692308,8.67692308 1.47692308,10.1076923 0.461538462,10.4769231 C0.415384615,10.4769231 0.415384615,10.5692308 0.461538462,10.5692308 L10.0153846,10.5692308 Z" id="Shape"></path>
            </g>
        </g>
    </g>
</svg>