<?xml version="1.0" encoding="UTF-8"?>
<svg width="57px" height="57px" viewBox="0 0 57 57" version="1.1" xmlns="http://www.w3.org/2000/svg" xmlns:xlink="http://www.w3.org/1999/xlink">
    <title>pin</title>
    <defs>
        <circle id="path-1" cx="23.5" cy="23.5" r="23.5"></circle>
        <filter x="-18.1%" y="-13.8%" width="136.2%" height="136.2%" filterUnits="objectBoundingBox" id="filter-2">
            <feOffset dx="0" dy="2" in="SourceAlpha" result="shadowOffsetOuter1"></feOffset>
            <feGaussianBlur stdDeviation="2.5" in="shadowOffsetOuter1" result="shadowBlurOuter1"></feGaussianBlur>
            <feColorMatrix values="0 0 0 0 0   0 0 0 0 0   0 0 0 0 0  0 0 0 0.15 0" type="matrix" in="shadowBlurOuter1"></feColorMatrix>
        </filter>
        <linearGradient x1="0.0195293427%" y1="100%" x2="82.2837324%" y2="15.9472656%" id="linearGradient-3">
            <stop stop-color="#01A3C2" offset="0%"></stop>
            <stop stop-color="#01556A" offset="100%"></stop>
        </linearGradient>
    </defs>
    <g id="pin" stroke="none" stroke-width="1" fill="none" fill-rule="evenodd">
        <g id="Group-25" transform="translate(5.000000, 3.000000)">
            <g id="Oval">
                <use fill="black" fill-opacity="1" filter="url(#filter-2)" xlink:href="#path-1"></use>
                <use fill="#FFFFFF" fill-rule="evenodd" xlink:href="#path-1"></use>
            </g>
            <path d="M28.7120531,8 L28.1115452,8.60050791 C26.7009181,10.011135 26.4913069,12.1752295 27.4883766,13.8124634 L21.4096503,17.9197109 L21.3020121,17.8120727 C18.984958,15.4950186 15.2062903,15.4950186 12.8892362,17.8120727 L12.2887283,18.4125806 L19.8403985,25.9642508 L10,35.8046493 L11.2010158,37.0056652 L21.0357492,27.1709318 L28.5874194,34.7226021 L29.1879273,34.1220942 C31.5049814,31.80504 31.5049814,28.0263723 29.1879273,25.7093182 L29.0802891,25.60168 L33.1875366,19.5229537 C34.8247705,20.5143583 36.988865,20.3104122 38.3994921,18.8997851 L39,18.2992772 L28.7120531,8 Z M28.5307677,32.2525884 L14.7530768,18.4748974 C16.4016409,17.387185 18.650713,17.5628052 20.1009963,19.0130885 L27.9925767,26.9046689 C29.4428599,28.3606173 29.6184802,30.6040242 28.5307677,32.2525884 Z M27.8622778,24.3780035 L22.6276617,19.1433874 L28.6044149,15.1041219 L31.9015433,18.4012502 L27.8622778,24.3780035 Z M29.3068959,13.4045712 C28.5251026,12.6227779 28.3551475,11.4500879 28.808361,10.5040047 L36.4959953,18.191639 C35.5499121,18.6448525 34.3828873,18.4748974 33.5954288,17.6931041 L29.3068959,13.4045712 Z" id="Shape" fill="url(#linearGradient-3)" fill-rule="nonzero"></path>
        </g>
    </g>
</svg>