<?xml version="1.0" encoding="UTF-8"?>
<svg width="72px" height="72px" viewBox="0 0 72 72" version="1.1" xmlns="http://www.w3.org/2000/svg" xmlns:xlink="http://www.w3.org/1999/xlink">
    <title>right-arrow</title>
    <g id="right-arrow" stroke="none" stroke-width="1" fill="none" fill-rule="evenodd">
        <circle id="Oval" fill="#FFFFFF" fill-rule="nonzero" cx="36" cy="36" r="35"></circle>
        <circle id="Oval" stroke="#D5D1C7" cx="36" cy="36" r="35"></circle>
        <path d="M47.1,35.3 L37.8,26 C37.5,25.7 37.1,25.7 36.8,26 C36.5,26.3 36.5,26.7 36.8,27 L45,35.2 L27.3,35.2 C26.9,35.2 26.6,35.5 26.6,35.9 C26.6,36.3 26.9,36.6 27.3,36.6 L45,36.6 L36.8,44.8 C36.5,45.1 36.5,45.5 36.8,45.8 C36.9,45.9 37.1,46 37.3,46 C37.5,46 37.6,45.9 37.8,45.8 L47.1,36.5 C47.4,36 47.4,35.6 47.1,35.3 Z" id="Path" fill="#6D6E71" fill-rule="nonzero"></path>
    </g>
</svg>