<?xml version="1.0" encoding="UTF-8"?>
<svg width="21px" height="21px" viewBox="0 0 21 21" version="1.1" xmlns="http://www.w3.org/2000/svg" xmlns:xlink="http://www.w3.org/1999/xlink">
    <title>side-nav-icon-calendar</title>
    <g id="side-nav-icon-calendar" stroke="none" stroke-width="1" fill="none" fill-rule="evenodd" opacity="0.4">
        <g id="Group-7" transform="translate(1.000000, 0.000000)">
            <path d="M0,3.15789474 L19.1760116,3.15789474 L19.1760116,15.765268 C19.4694491,18.5884227 18.3576574,20 15.8406363,20 C13.3236153,20 8.98439232,20 2.8229673,20 C0.940989099,19.5114956 0,18.0999183 0,15.765268 C0,13.4306178 0,10.9621261 0,8.35979301 L0,4.19837648 L0,3.15789474 Z" id="Fill-8" stroke="#FFFFFF" stroke-width="1.5" fill="#023E5E"></path>
            <line x1="0" y1="8.42105263" x2="19.221968" y2="8.42105263" id="Path-2" stroke="#FFFFFF" stroke-width="1.5"></line>
            <path d="M14.9472721,0.75 C15.1504219,0.75 15.327031,0.85865159 15.4579063,1.01156094 C15.6277306,1.20997694 15.7259725,1.48569499 15.7259725,1.78607217 L15.7259725,1.78607217 L15.7259781,4.53455139 C15.7248258,4.83377961 15.626285,5.10849777 15.45645,5.30606822 C15.3258402,5.45800759 15.1498359,5.56578947 14.9472721,5.56578947 L14.9472721,5.56578947 L13.4289582,5.56578947 C13.2263944,5.56578947 13.05039,5.45800759 12.9197803,5.30606822 C12.7499453,5.10849777 12.6514045,4.83377961 12.6502576,4.53700358 L12.6502576,4.53700358 L12.6493135,2.91353712 L12.6493135,1.78607217 C12.6493135,1.48571171 12.7475468,1.21000224 12.9174534,1.01161273 C13.0485161,0.858578829 13.2254455,0.75 13.4289582,0.75 L13.4289582,0.75 Z" id="Fill-8" stroke="#FFFFFF" stroke-width="1.5" fill="#013D5E"></path>
            <path d="M5.79300981,0.75 C5.99652249,0.75 6.17345184,0.858578829 6.30451456,1.01161273 C6.47442117,1.21000224 6.57265446,1.48571171 6.57265446,1.78607217 L6.57265446,1.78607217 L6.57266315,4.53382933 C6.57122141,4.83332779 6.47242465,5.10828931 6.30234998,5.30601645 C6.17164858,5.45796862 5.99561746,5.56578947 5.79300981,5.56578947 L5.79300981,5.56578947 L4.27469585,5.56578947 C4.07213208,5.56578947 3.89612771,5.45800759 3.76551798,5.30606822 C3.59568299,5.10849777 3.49714221,4.83377961 3.49599542,4.53743967 L3.49599542,4.53743967 L3.49599542,1.78607217 C3.49599542,1.48559123 3.59408152,1.20974533 3.76394029,1.01128917 C3.89476735,0.858436077 4.07140058,0.75 4.27469585,0.75 L4.27469585,0.75 Z" id="Fill-10" stroke="#FFFFFF" stroke-width="1.5" fill="#013D5E"></path>
            <path d="M12.8146453,16.8421053 L9.15331808,16.8421053 L9.15331808,16.4645829 C10.2554428,15.17888 11.2802418,13.6017937 11.2802418,12.7127551 C11.2802418,12.1034021 10.9411265,11.7641637 10.4753087,11.7641637 C10.0691157,11.7641637 9.73000041,11.918363 9.39926983,12.1608281 L9.29772157,10.9134091 C9.63683686,10.6805151 10.0775004,10.5263158 10.5945581,10.5263158 C11.7125206,10.5263158 12.534223,11.2324421 12.534223,12.5968398 C12.534223,13.6017937 11.72929,14.936415 11.1451546,15.6616833 L12.8146453,15.6616833 L12.8146453,16.8421053 Z" id="Path" fill="#FFFFFF"></path>
            <polygon id="Path" fill="#FFFFFF" points="8.23798627 16.8421053 7.21181197 16.8421053 7.21181197 11.8745944 6.40732265 11.971662 6.48565657 10.7407177 8.23798627 10.5263158"></polygon>
        </g>
    </g>
</svg>