<?xml version="1.0" encoding="UTF-8"?>
<svg width="21px" height="21px" viewBox="0 0 21 21" version="1.1" xmlns="http://www.w3.org/2000/svg" xmlns:xlink="http://www.w3.org/1999/xlink">
    <title>side-nav-icon-payroll</title>
    <g id="side-nav-icon-payroll" stroke="none" stroke-width="1" fill="none" fill-rule="evenodd" opacity="0.4">
        <g id="Untitled-5">
            <path d="M19.8333333,10.75 L19.8333333,4.16666667 C19.8333333,2.25 18.25,0.75 16.4166667,0.75 L4.16666667,0.75 C2.25,0.75 0.75,2.25 0.75,4.16666667 L0.75,16.1666667 C0.75,18.0833333 2.33333333,19.5833333 4.16666667,19.5833333 L16.4166667,19.5833333 C18.3333333,19.5833333 19.8333333,18 19.8333333,16.1666667 L19.8333333,10.75 Z" id="Path" stroke="#FFFFFF" stroke-width="1.5" stroke-linecap="round" stroke-linejoin="round"></path>
            <path d="M10.6666667,16.8333333 L9.75,16.8333333 L9.75,15.4166667 C8.58333333,15.3333333 7.75,15 7.08333333,14.5833333 L7.41666667,13.1666667 C8,13.5833333 8.83333333,14 9.91666667,14 C11.25,14 12,13.25 12,12.25 C12,11.4166667 11.3333333,10.75 10.0833333,10.25 C8.25,9.58333333 7.08333333,8.5 7.08333333,7.08333333 C7.08333333,5.66666667 8,4.5 9.66666667,4.16666667 L9.66666667,2.83333333 L10.5833333,2.83333333 L10.5833333,4.25 C11.5833333,4.33333333 12.1666667,4.5 12.75,4.83333333 L12.5,6.16666667 C11.9166667,5.83333333 11.1666667,5.58333333 10.3333333,5.58333333 C9.25,5.58333333 8.5,6.25 8.5,7.08333333 C8.5,7.83333333 9.16666667,8.33333333 10.25,8.75 C12.0833333,9.41666667 13.4166667,10.5833333 13.4166667,12.1666667 C13.5,13.75 12.5833333,15.1666667 10.6666667,15.3333333 L10.6666667,16.8333333 Z" id="Path" fill="#FFFFFF" fill-rule="nonzero"></path>
        </g>
    </g>
</svg>