<?xml version="1.0" encoding="UTF-8"?>
<svg width="45px" height="50px" viewBox="0 0 45 50" version="1.1" xmlns="http://www.w3.org/2000/svg" xmlns:xlink="http://www.w3.org/1999/xlink">
    <title>top-icon-insights</title>
    <g id="top-icon-insights" stroke="none" stroke-width="1" fill="none" fill-rule="evenodd">
        <g id="Path-4" transform="translate(-0.619141, 0.000000)">
            <g id="Mask" transform="translate(0.619141, 0.000000)" fill-rule="nonzero">
                <path d="M43.3138661,12.0137688 C43.7524414,12.2683594 43.3130859,12.0132812 43.3138661,12.0137688 L43.3138661,12.0137688 Z" id="Path" fill="#000000"></path>
                <path d="M43.3138672,12.0137695 C43.3130859,12.0132813 43.3123047,12.0129883 43.3115234,12.0125 L22.8015625,0.194824219 C22.3680664,-0.0549804687 21.8155273,-0.0715820312 21.3561523,0.185644531 C21.3504883,0.188769531 21.3446289,0.191503906 21.3389648,0.194824219 L0.830566406,12.0115234 C0.387109375,12.2689453 0.0969726562,12.7509766 0.0969726562,13.2807617 L0.0969726562,36.7188477 C0.0969726562,37.2414063 0.38671875,37.7384766 0.842089844,37.9947266 L21.3364258,49.8033203 C21.7799805,50.0575195 22.3242187,50.0681641 22.7786133,49.8169922 C22.7862305,49.812793 22.794043,49.809082 22.8015625,49.8047852 L22.8024414,49.8042969 L43.2987305,37.9945313 C43.3023437,37.9924805 43.305957,37.9904297 43.3095703,37.9883789 C43.7612305,37.7279297 44.0379883,37.2475586 44.0429687,36.7351563 C44.0430664,36.7296875 44.0435547,36.7244141 44.0435547,36.7189453 L44.0435547,13.2808594 C44.0435547,12.7489258 43.7524414,12.2683594 43.3138672,12.0137695 Z M23.5351562,3.99873047 L39.6352539,13.2753906 L32.7144531,17.2301758 C30.5861328,14.3222656 27.2970703,12.3155273 23.5351562,11.8976563 L23.5351562,3.99873047 Z M32.3244141,24.999707 C32.3244141,26.8485352 31.8324219,28.584668 30.9726562,30.084082 C30.9722656,30.0847656 30.9717773,30.0853516 30.9713867,30.0860352 C30.9708008,30.0870117 30.9704102,30.0880859 30.9699219,30.0889648 C29.43125,32.7692383 26.7166992,34.6916016 23.5351562,35.1487305 L23.5351562,25.8498047 L31.609082,21.2361328 C32.0706055,22.4019531 32.3244141,23.6716797 32.3244141,24.999707 Z M20.6053711,3.99873047 L20.6053711,11.8976563 C16.843457,12.3154297 13.5543945,14.3222656 11.4260742,17.2301758 L4.50527344,13.2753906 L20.6053711,3.99873047 Z M3.02685547,15.8049805 L9.96845703,19.771582 C9.27294922,21.3753906 8.88642578,23.1431641 8.88642578,24.999707 C8.88642578,26.85625 9.27294922,28.6240234 9.96845703,30.227832 L3.02685547,34.1944336 L3.02685547,15.8049805 Z M20.6053711,46.0007813 L4.50527344,36.7240234 L11.4260742,32.7693359 C13.5543945,35.6772461 16.843457,37.6839844 20.6053711,38.1018555 L20.6053711,46.0007813 L20.6053711,46.0007813 Z M20.6053711,35.1489258 C17.4238281,34.6917969 14.709375,32.7693359 13.1706055,30.0891602 C13.1700195,30.0881836 13.1696289,30.0871094 13.1691406,30.0862305 C13.16875,30.0855469 13.1682617,30.0849609 13.1678711,30.0842773 C12.3082031,28.5848633 11.8161133,26.8487305 11.8161133,24.9999023 C11.8161133,23.6719727 12.0699219,22.4020508 12.5314453,21.2363281 L20.6053711,25.85 L20.6053711,35.1489258 L20.6053711,35.1489258 Z M22.0702148,23.3125 L13.9890625,18.6947266 C15.8673828,16.2925781 18.7914062,14.7456055 22.0702148,14.7456055 C25.3489258,14.7456055 28.2729492,16.2925781 30.1513672,18.6947266 L22.0702148,23.3125 Z M23.5351562,46.0006836 L23.5351562,38.1017578 C27.2970703,37.6839844 30.5861328,35.6771484 32.7144531,32.7692383 L39.6352539,36.7239258 L23.5351562,46.0006836 Z M41.1136719,34.1945313 L34.1720703,30.227832 C34.8675781,28.6240234 35.2541016,26.85625 35.2541016,24.999707 C35.2541016,23.1431641 34.8675781,21.3753906 34.1720703,19.771582 L41.1136719,15.8049805 L41.1136719,34.1945313 Z" id="Shape" fill="#75BFCC"></path>
            </g>
            <polygon fill="#035D8E" points="-3.50292969 12.0581543 23.1191406 27.1006836 47.2294922 13.4685547 47.2294922 40.1712158 22.6191406 56.0058594 -1.29980469 40.1712158"></polygon>
        </g>
    </g>
</svg>