<?xml version="1.0" encoding="UTF-8"?>
<svg width="46px" height="50px" viewBox="0 0 46 50" version="1.1" xmlns="http://www.w3.org/2000/svg" xmlns:xlink="http://www.w3.org/1999/xlink">
    <title>top-icon-payroll</title>
    <defs>
        <path d="M42.7832031,32.6003906 L42.7832031,17.3996094 C44.278418,16.8125977 45.340332,15.355957 45.340332,13.6550781 C45.340332,11.4374023 43.5360352,9.63310547 41.3183594,9.63310547 C40.3025391,9.63310547 39.3741211,10.0124023 38.6654297,10.6358398 L26.6704102,4.43964844 C26.684668,4.30234375 26.6920898,4.16298828 26.6920898,4.02197266 C26.6920898,1.80429687 24.8878906,0 22.6701172,0 C20.4524414,0 18.6481445,1.80429687 18.6481445,4.02197266 C18.6481445,4.16298828 18.6555664,4.30234375 18.6698242,4.43964844 L6.67490234,10.6358398 C5.96621094,10.0124023 5.03779297,9.63310547 4.02197266,9.63310547 C1.80429688,9.63310547 0,11.4374023 0,13.6550781 C0,15.3560547 1.06191406,16.8126953 2.55712891,17.399707 L2.55712891,32.6004883 C1.06191406,33.1875 0,34.6441406 0,36.3451172 C0,38.562793 1.80429688,40.3670898 4.02197266,40.3670898 C5.03779297,40.3670898 5.96621094,39.987793 6.67490234,39.3643555 L18.6698242,45.5604492 C18.6555664,45.6977539 18.6481445,45.8371094 18.6481445,45.978125 C18.6481445,48.1957031 20.4524414,50 22.6701172,50 C24.887793,50 26.6920898,48.1957031 26.6920898,45.9780273 C26.6920898,45.8370117 26.684668,45.6976563 26.6704102,45.5603516 L38.665332,39.3641602 C39.3740234,39.9875977 40.3024414,40.3668945 41.3182617,40.3668945 C43.5359375,40.3668945 45.340332,38.5625977 45.340332,36.3449219 C45.340332,34.644043 44.2783203,33.1874023 42.7832031,32.6003906 Z M6.45859375,33.1480469 C6.16386719,32.9229492 5.83730469,32.7379883 5.48681641,32.6003906 L5.48681641,17.3996094 C5.83720703,17.2620117 6.16386719,17.0771484 6.45859375,16.8519531 L18.7094727,24.3050781 C18.6699219,24.530957 18.6481445,24.7628906 18.6481445,24.9999023 C18.6481445,25.2369141 18.6699219,25.4688477 18.7094727,25.6947266 L6.45859375,33.1480469 Z M21.2052734,42.2333984 C20.7666016,42.4056641 20.365332,42.6525391 20.0171875,42.9587891 L8.02226563,36.7626953 C8.03652344,36.6253906 8.04394531,36.4860352 8.04394531,36.3450195 C8.04394531,36.1080078 8.02216797,35.8760742 7.98261719,35.6501953 L20.2334961,28.1970703 C20.5282227,28.422168 20.8547852,28.6071289 21.2052734,28.7447266 L21.2052734,42.2333984 Z M21.2052734,21.2553711 C20.8548828,21.3929688 20.5282227,21.577832 20.2334961,21.8030273 L7.98261719,14.3499023 C8.02216797,14.1240234 8.04394531,13.8920898 8.04394531,13.6550781 C8.04394531,13.5140625 8.03652344,13.374707 8.02226563,13.2374023 L20.0171875,7.04130859 C20.365332,7.34755859 20.7665039,7.59443359 21.2052734,7.76669922 L21.2052734,21.2553711 L21.2052734,21.2553711 Z M25.3230469,7.04121094 L37.3179688,13.2374023 C37.3037109,13.374707 37.2962891,13.5140625 37.2962891,13.6550781 C37.2962891,13.8920898 37.3180664,14.1240234 37.3576172,14.3499023 L25.1067383,21.8030273 C24.8120117,21.5779297 24.4854492,21.3929687 24.1349609,21.2553711 L24.1349609,7.76660156 L24.1349609,7.76660156 C24.5736328,7.59433594 24.9749023,7.34746094 25.3230469,7.04121094 Z M37.3179688,36.7626953 L25.3230469,42.9588867 C24.9749023,42.6525391 24.5736328,42.4056641 24.1349609,42.2334961 L24.1349609,28.7446289 C24.4853516,28.6070313 24.8120117,28.422168 25.1067383,28.1969727 L37.3576172,35.6500977 C37.3180664,35.8759766 37.2962891,36.1079102 37.2962891,36.3449219 C37.2963867,36.4860352 37.3038086,36.6253906 37.3179688,36.7626953 Z M39.8535156,32.6003906 C39.5030273,32.7379883 39.1764648,32.9228516 38.8817383,33.1480469 L26.6308594,25.6949219 C26.6704102,25.469043 26.6921875,25.2371094 26.6921875,25.0000977 C26.6921875,24.7630859 26.6704102,24.5311523 26.6308594,24.3052734 L38.8817383,16.8521484 C39.1764648,17.0773438 39.503125,17.262207 39.8535156,17.3998047 L39.8535156,32.6003906 Z" id="path-1"></path>
    </defs>
    <g id="top-icon-payroll" stroke="none" stroke-width="1" fill="none" fill-rule="evenodd">
        <g id="Rectangle" transform="translate(0.083691, 0.000000)">
            <mask id="mask-2" fill="white">
                <use xlink:href="#path-1"></use>
            </mask>
            <use id="Mask" fill="#01A3C3" fill-rule="nonzero" xlink:href="#path-1"></use>
            <rect fill="#016A82" mask="url(#mask-2)" transform="translate(28.913379, 36.148437) rotate(-301.000000) translate(-28.913379, -36.148437) " x="15.9133789" y="8.6484375" width="26" height="55"></rect>
        </g>
    </g>
</svg>