<?xml version="1.0" encoding="UTF-8"?>
<svg width="44px" height="50px" viewBox="0 0 44 50" version="1.1" xmlns="http://www.w3.org/2000/svg" xmlns:xlink="http://www.w3.org/1999/xlink">
    <title>top-icon-user-management</title>
    <g id="top-icon-user-management" stroke="none" stroke-width="1" fill="none" fill-rule="evenodd">
        <g id="Group-3" transform="translate(-0.000000, 0.000000)">
            <path d="M21.6346154,0 L0,12.5 L0,37.4999023 L21.6346154,50 L43.2692308,37.4999023 L43.2692308,12.5 L21.6346154,0 Z M20.1681198,4.23652344 L20.1681198,11.8796875 L6.93960379,11.8796875 L20.1681198,4.23652344 Z M23.101111,11.8796875 L23.101111,4.23662109 L36.329627,11.8796875 L23.101111,11.8796875 Z M23.1010134,14.8148437 L23.1010134,14.8148437 L36.3295294,14.8148437 L23.1010134,22.4580078 L23.1010134,14.8148437 Z M6.93960379,14.8148437 L20.1681198,14.8148437 L20.1681198,22.4580078 L6.93960379,14.8148437 Z M5.46032469,17.3494141 L18.7505139,25.0282227 L12.0964416,28.8519531 L5.46032469,17.3494141 Z M24.5676065,25 L37.7961225,17.3569336 L31.1819621,28.8214844 L24.5676065,25 Z M33.721884,30.2891602 L40.3361421,18.8244141 L40.3361421,34.1105469 L33.721884,30.2891602 Z M2.93299113,18.8392578 L9.55300662,30.3135742 L2.93299113,34.1176758 L2.93299113,18.8392578 Z M23.101111,27.5418945 L29.715369,31.3634766 L23.101111,42.8282227 L23.101111,27.5418945 Z M13.5631323,31.39375 L20.1681198,27.5982422 L20.1681198,42.8420898 L13.5631323,31.39375 Z M32.2553885,32.8310547 L38.8696465,36.6526367 L25.6411305,44.2958008 L32.2553885,32.8310547 Z M4.40543934,36.6560547 L11.0195022,32.8554688 L17.6158047,44.2888672 L4.40543934,36.6560547 Z" id="Fill-1" fill="#FFB655"></path>
            <path d="M22.1153846,0 L22.1153846,50 L43.2692308,37.4999023 L43.2692308,12.5 L22.1153846,0 Z M23.5492914,4.23662109 L36.4838404,11.8796875 L23.5492914,11.8796875 L23.5492914,4.23662109 Z M23.549196,14.8148437 L23.549196,14.8148437 L36.483745,14.8148437 L23.549196,22.4580078 L23.549196,14.8148437 Z M24.9831982,25 L37.9177472,17.3569336 L31.4505681,28.8214844 L24.9831982,25 Z M33.9340473,30.2891602 L40.4013218,18.8244141 L40.4013218,34.1106445 L33.9340473,30.2891602 Z M23.5492914,27.5418945 L30.0165659,31.3634766 L23.5492914,42.8282227 L23.5492914,27.5418945 Z M32.5001405,32.8310547 L38.967415,36.6526367 L26.032866,44.2958008 L32.5001405,32.8310547 Z" id="Fill-2" fill="#FF7C48"></path>
        </g>
    </g>
</svg>