<?xml version="1.0" encoding="UTF-8"?>
<svg width="50px" height="50px" viewBox="0 0 50 50" version="1.1" xmlns="http://www.w3.org/2000/svg" xmlns:xlink="http://www.w3.org/1999/xlink">
    <title>top-icon-reporting</title>
    <g id="top-icon-reporting" stroke="none" stroke-width="1" fill="none" fill-rule="evenodd">
        <g id="Rectangle" transform="translate(0.000000, -0.003093)">
            <g id="Mask" transform="translate(0.000000, 0.003093)" fill="#E4632D" fill-rule="nonzero">
                <path d="M49.1875977,26.3705078 L38.2859375,21.1021484 L38.2859375,7.08388672 C38.2859375,6.51855469 37.9606445,6.00371094 37.4501953,5.76103516 L25.6337891,0.141992188 C25.2341797,-0.048046875 24.7702148,-0.047265625 24.3713867,0.144042969 L12.6526367,5.76308594 C12.1512695,6.00361328 11.8222656,6.51777344 11.8212891,7.08017578 L11.8211914,21.0705078 L0.833105469,26.3699219 C0.333886719,26.6107422 0.00458984375,27.1236328 0.00458984375,27.6893555 L0.00458984375,42.5957031 C0.00458984375,43.1490234 0.316308594,43.6550781 0.810546875,43.9040039 L12.6038086,49.843457 C13.0501953,50.0682617 13.6360352,50.0613281 14.0961914,49.7550781 L25.0033203,44.2378906 L36.0369141,49.8412109 C36.4827148,50.0676758 37.0660156,50.0619141 37.5260742,49.7597656 L49.206543,43.9052734 C49.7021484,43.6569336 49.9955078,43.1500977 49.9955078,42.5957031 L49.9955078,27.6893555 C49.9955078,27.1273437 49.6900391,26.6134766 49.1875977,26.3705078 Z M11.8209961,46.1689453 L2.93427734,41.6932617 L2.93427734,30.0672852 L11.8209961,34.5429688 L11.8209961,46.1689453 Z M13.2612305,31.9879883 L4.78251953,27.7177734 L13.2828125,23.6179687 L21.7036133,27.7174805 L13.2612305,31.9879883 Z M23.5397461,41.6951172 L14.7506836,46.140918 L14.7506836,34.5177734 L23.5397461,30.0719727 L23.5397461,41.6951172 Z M23.5397461,25.3481445 L14.7506836,21.0737305 L14.7506836,9.46855469 L23.5397461,13.9232422 L23.5397461,25.3481445 Z M16.5979492,7.1203125 L25.0072266,3.08818359 L33.4612305,7.10830078 L25.0055664,11.3816406 L16.5979492,7.1203125 Z M35.3561523,9.43310547 L35.3561523,21.0416016 L26.4694336,25.3510742 L26.4694336,13.9243164 L35.3561523,9.43310547 Z M35.2584961,46.1601562 L26.4694336,41.6966797 L26.4694336,30.0761719 L35.2584961,34.5396484 L35.2584961,46.1601562 Z M36.7044922,31.9881836 L28.3110352,27.7255859 L36.7886719,23.6324219 L45.2332031,27.7133789 L36.7044922,31.9881836 Z M47.0852539,41.6914062 L38.1881836,46.1507812 L38.1881836,34.521582 L47.0852539,30.0621094 L47.0852539,41.6914062 Z" id="Shape"></path>
            </g>
            <polygon fill="#FA8B16" transform="translate(25.272461, 13.621574) rotate(-315.000000) translate(-25.272461, -13.621574) " points="11.13673 1.42679638 44.6163371 -6 34.8642949 23.5987264 5.92858474 33.2431489"></polygon>
        </g>
    </g>
</svg>